# xmcd
#
# Track frame offsets: 
#        150
#        25082
#        57330
#        71488
#        92582
#        106350
#        124969
#        201984
#        213027
#        232004
#
# Disc length: 3345 seconds
#
# Revision: 0
# Processed by: cddbd v1.5.2PL0 Copyright (c) Steve Scherf et al.
# Submitted via: ExactAudioCopyFreeDBPlugin 1.0
#
DISCID=8a0d0f0a
DTITLE=The Dad Horse Experience - Eating Meatballs On A Blood-Stained 
DTITLE=Mattress In A Huggy Bear Motel
DYEAR=2016
DGENRE=Country
TTITLE0=Will I Be Someone
TTITLE1=Reach Out Your Hand Revisited
TTITLE2=Love Is A Meatgrinder
TTITLE3=Under Swine and Bears
TTITLE4=Little White Fish
TTITLE5=Huggy Bear Motel
TTITLE6=Rain
TTITLE7=Lost On The River
TTITLE8=Huggy Bear Motel (early demo version)
TTITLE9=Reach Out Your Hand Revisited (video edit)
EXTD=
EXTT0=
EXTT1=
EXTT2=
EXTT3=
EXTT4=
EXTT5=
EXTT6=
EXTT7=
EXTT8=
EXTT9=
PLAYORDER=
